<svg xmlns="http://www.w3.org/2000/svg" viewBox="0 0 120 120" width="120" height="120">
  <!-- Handle -->
  <rect x="56" y="8" width="8" height="60" rx="3" fill="#8B7355" />
  <!-- Bristle base / collar -->
  <rect x="48" y="64" width="24" height="6" rx="2" fill="#6B5B45" />
  <!-- Bristles -->
  <path d="M48 70 C48 70 44 90 42 105 C42 108 44 110 46 110 L74 110 C76 110 78 108 78 105 C76 90 72 70 72 70 Z" fill="#D4A843" />
  <!-- Bristle lines -->
  <line x1="52" y1="72" x2="49" y2="106" stroke="#C09530" stroke-width="1" stroke-linecap="round" />
  <line x1="56" y1="72" x2="54" y2="106" stroke="#C09530" stroke-width="1" stroke-linecap="round" />
  <line x1="60" y1="72" x2="60" y2="106" stroke="#C09530" stroke-width="1" stroke-linecap="round" />
  <line x1="64" y1="72" x2="66" y2="106" stroke="#C09530" stroke-width="1" stroke-linecap="round" />
  <line x1="68" y1="72" x2="71" y2="106" stroke="#C09530" stroke-width="1" stroke-linecap="round" />
</svg>
